<svg xmlns="http://www.w3.org/2000/svg" xmlns:xlink="http://www.w3.org/1999/xlink" width="500" zoomAndPan="magnify" viewBox="0 0 375 374.999991" height="500" preserveAspectRatio="xMidYMid meet" version="1.0"><defs><g/></defs><g fill="#000000" fill-opacity="1"><g transform="translate(131.902292, 241.422427)"><g><path d="M 17.078125 -129.921875 L 72.8125 -129.921875 C 82.132812 -129.921875 91.28125 -129.804688 100.25 -129.578125 C 109.21875 -129.347656 117.613281 -128.65625 125.4375 -127.5 C 133.257812 -126.351562 140.191406 -124.484375 146.234375 -121.890625 C 152.273438 -119.304688 156.988281 -115.6875 160.375 -111.03125 C 163.769531 -106.375 165.46875 -100.304688 165.46875 -92.828125 C 165.46875 -86.847656 164.347656 -81.785156 162.109375 -77.640625 C 159.867188 -73.503906 156.734375 -70.054688 152.703125 -67.296875 C 159.492188 -64.765625 164.875 -61.109375 168.84375 -56.328125 C 172.8125 -51.554688 174.796875 -45.144531 174.796875 -37.09375 C 174.796875 -29.726562 173.097656 -23.6875 169.703125 -18.96875 C 166.304688 -14.257812 161.585938 -10.609375 155.546875 -8.015625 C 149.515625 -5.429688 142.554688 -3.5625 134.671875 -2.40625 C 126.796875 -1.257812 118.367188 -0.570312 109.390625 -0.34375 C 100.421875 -0.113281 91.273438 0 81.953125 0 L 17.078125 0 Z M 54.1875 -111.296875 L 54.1875 -74.1875 L 72.8125 -74.1875 C 85.238281 -74.1875 95.5625 -74.445312 103.78125 -74.96875 C 112.007812 -75.488281 118.164062 -77.039062 122.25 -79.625 C 126.332031 -82.21875 128.375 -86.617188 128.375 -92.828125 C 128.375 -99.035156 126.332031 -103.40625 122.25 -105.9375 C 118.164062 -108.46875 112.007812 -109.992188 103.78125 -110.515625 C 95.5625 -111.035156 85.238281 -111.296875 72.8125 -111.296875 Z M 81.953125 -55.734375 C 80.460938 -55.734375 78.96875 -55.734375 77.46875 -55.734375 C 75.976562 -55.734375 74.425781 -55.734375 72.8125 -55.734375 L 54.1875 -55.734375 L 54.1875 -18.640625 L 81.953125 -18.640625 C 94.378906 -18.640625 104.734375 -18.894531 113.015625 -19.40625 C 121.296875 -19.925781 127.476562 -21.476562 131.5625 -24.0625 C 135.644531 -26.65625 137.6875 -31 137.6875 -37.09375 C 137.6875 -43.3125 135.644531 -47.710938 131.5625 -50.296875 C 127.476562 -52.890625 121.296875 -54.441406 113.015625 -54.953125 C 104.734375 -55.472656 94.378906 -55.734375 81.953125 -55.734375 Z M 81.953125 -55.734375 "/></g></g></g><g fill="#004aad" fill-opacity="1"><g transform="translate(57.570793, 241.422427)"><g><path d="M 4.828125 -129.921875 L 171.859375 -129.921875 L 171.859375 -111.296875 L 106.984375 -111.296875 L 106.984375 0 L 69.703125 0 L 69.703125 -111.296875 L 4.828125 -111.296875 Z M 4.828125 -129.921875 "/></g></g></g></svg>