<svg xmlns="http://www.w3.org/2000/svg" xmlns:xlink="http://www.w3.org/1999/xlink" width="500" zoomAndPan="magnify" viewBox="0 0 375 374.999991" height="500" preserveAspectRatio="xMidYMid meet" version="1.0"><defs><g/></defs><g fill="#000000" fill-opacity="1"><g transform="translate(71.405061, 241.422427)"><g><path d="M 17.078125 -129.921875 L 72.8125 -129.921875 C 82.132812 -129.921875 91.28125 -129.804688 100.25 -129.578125 C 109.21875 -129.347656 117.613281 -128.65625 125.4375 -127.5 C 133.257812 -126.351562 140.191406 -124.484375 146.234375 -121.890625 C 152.273438 -119.304688 156.988281 -115.6875 160.375 -111.03125 C 163.769531 -106.375 165.46875 -100.304688 165.46875 -92.828125 C 165.46875 -86.847656 164.347656 -81.785156 162.109375 -77.640625 C 159.867188 -73.503906 156.734375 -70.054688 152.703125 -67.296875 C 159.492188 -64.765625 164.875 -61.109375 168.84375 -56.328125 C 172.8125 -51.554688 174.796875 -45.144531 174.796875 -37.09375 C 174.796875 -29.726562 173.097656 -23.6875 169.703125 -18.96875 C 166.304688 -14.257812 161.585938 -10.609375 155.546875 -8.015625 C 149.515625 -5.429688 142.554688 -3.5625 134.671875 -2.40625 C 126.796875 -1.257812 118.367188 -0.570312 109.390625 -0.34375 C 100.421875 -0.113281 91.273438 0 81.953125 0 L 17.078125 0 Z M 54.1875 -111.296875 L 54.1875 -74.1875 L 72.8125 -74.1875 C 85.238281 -74.1875 95.5625 -74.445312 103.78125 -74.96875 C 112.007812 -75.488281 118.164062 -77.039062 122.25 -79.625 C 126.332031 -82.21875 128.375 -86.617188 128.375 -92.828125 C 128.375 -99.035156 126.332031 -103.40625 122.25 -105.9375 C 118.164062 -108.46875 112.007812 -109.992188 103.78125 -110.515625 C 95.5625 -111.035156 85.238281 -111.296875 72.8125 -111.296875 Z M 81.953125 -55.734375 C 80.460938 -55.734375 78.96875 -55.734375 77.46875 -55.734375 C 75.976562 -55.734375 74.425781 -55.734375 72.8125 -55.734375 L 54.1875 -55.734375 L 54.1875 -18.640625 L 81.953125 -18.640625 C 94.378906 -18.640625 104.734375 -18.894531 113.015625 -19.40625 C 121.296875 -19.925781 127.476562 -21.476562 131.5625 -24.0625 C 135.644531 -26.65625 137.6875 -31 137.6875 -37.09375 C 137.6875 -43.3125 135.644531 -47.710938 131.5625 -50.296875 C 127.476562 -52.890625 121.296875 -54.441406 113.015625 -54.953125 C 104.734375 -55.472656 94.378906 -55.734375 81.953125 -55.734375 Z M 81.953125 -55.734375 "/></g></g></g><g fill="#004aad" fill-opacity="1"><g transform="translate(-2.926444, 241.422427)"><g><path d="M 4.828125 -129.921875 L 171.859375 -129.921875 L 171.859375 -111.296875 L 106.984375 -111.296875 L 106.984375 0 L 69.703125 0 L 69.703125 -111.296875 L 4.828125 -111.296875 Z M 4.828125 -129.921875 "/></g></g></g><g fill="#000000" fill-opacity="1"><g transform="translate(242.644486, 245.521419)"><g><path d="M 20.265625 -25.609375 C 22.097656 -25.609375 23.898438 -25.453125 25.671875 -25.140625 C 27.441406 -24.835938 29.101562 -24.363281 30.65625 -23.71875 C 32.207031 -23.070312 33.578125 -22.242188 34.765625 -21.234375 C 35.953125 -20.222656 36.878906 -19.019531 37.546875 -17.625 C 38.222656 -16.226562 38.5625 -14.613281 38.5625 -12.78125 C 38.5625 -10.96875 38.222656 -9.359375 37.546875 -7.953125 C 36.878906 -6.546875 35.953125 -5.335938 34.765625 -4.328125 C 33.578125 -3.328125 32.207031 -2.507812 30.65625 -1.875 C 29.101562 -1.238281 27.441406 -0.765625 25.671875 -0.453125 C 23.898438 -0.148438 22.097656 0 20.265625 0 C 18.429688 0 16.628906 -0.148438 14.859375 -0.453125 C 13.085938 -0.765625 11.425781 -1.238281 9.875 -1.875 C 8.320312 -2.507812 6.953125 -3.328125 5.765625 -4.328125 C 4.578125 -5.335938 3.644531 -6.546875 2.96875 -7.953125 C 2.300781 -9.359375 1.96875 -10.96875 1.96875 -12.78125 C 1.96875 -14.613281 2.300781 -16.226562 2.96875 -17.625 C 3.644531 -19.019531 4.578125 -20.222656 5.765625 -21.234375 C 6.953125 -22.242188 8.320312 -23.070312 9.875 -23.71875 C 11.425781 -24.363281 13.085938 -24.835938 14.859375 -25.140625 C 16.628906 -25.453125 18.429688 -25.609375 20.265625 -25.609375 Z M 20.265625 -21.9375 C 18.878906 -21.9375 17.535156 -21.796875 16.234375 -21.515625 C 14.929688 -21.242188 13.757812 -20.773438 12.71875 -20.109375 C 11.675781 -19.441406 10.84375 -18.507812 10.21875 -17.3125 C 9.59375 -16.125 9.28125 -14.613281 9.28125 -12.78125 C 9.28125 -10.945312 9.59375 -9.441406 10.21875 -8.265625 C 10.84375 -7.085938 11.675781 -6.160156 12.71875 -5.484375 C 13.757812 -4.816406 14.929688 -4.347656 16.234375 -4.078125 C 17.535156 -3.804688 18.878906 -3.671875 20.265625 -3.671875 C 21.617188 -3.671875 22.945312 -3.804688 24.25 -4.078125 C 25.5625 -4.347656 26.738281 -4.816406 27.78125 -5.484375 C 28.820312 -6.160156 29.65625 -7.085938 30.28125 -8.265625 C 30.90625 -9.441406 31.21875 -10.945312 31.21875 -12.78125 C 31.21875 -14.613281 30.90625 -16.125 30.28125 -17.3125 C 29.65625 -18.507812 28.820312 -19.441406 27.78125 -20.109375 C 26.738281 -20.773438 25.5625 -21.242188 24.25 -21.515625 C 22.945312 -21.796875 21.617188 -21.9375 20.265625 -21.9375 Z M 20.265625 -21.9375 "/></g></g></g><g fill="#000000" fill-opacity="1"><g transform="translate(283.167841, 245.521419)"><g><path d="M 20.265625 -25.609375 C 22.097656 -25.609375 23.898438 -25.453125 25.671875 -25.140625 C 27.441406 -24.835938 29.101562 -24.363281 30.65625 -23.71875 C 32.207031 -23.070312 33.578125 -22.242188 34.765625 -21.234375 C 35.953125 -20.222656 36.878906 -19.019531 37.546875 -17.625 C 38.222656 -16.226562 38.5625 -14.613281 38.5625 -12.78125 C 38.5625 -10.96875 38.222656 -9.359375 37.546875 -7.953125 C 36.878906 -6.546875 35.953125 -5.335938 34.765625 -4.328125 C 33.578125 -3.328125 32.207031 -2.507812 30.65625 -1.875 C 29.101562 -1.238281 27.441406 -0.765625 25.671875 -0.453125 C 23.898438 -0.148438 22.097656 0 20.265625 0 C 18.429688 0 16.628906 -0.148438 14.859375 -0.453125 C 13.085938 -0.765625 11.425781 -1.238281 9.875 -1.875 C 8.320312 -2.507812 6.953125 -3.328125 5.765625 -4.328125 C 4.578125 -5.335938 3.644531 -6.546875 2.96875 -7.953125 C 2.300781 -9.359375 1.96875 -10.96875 1.96875 -12.78125 C 1.96875 -14.613281 2.300781 -16.226562 2.96875 -17.625 C 3.644531 -19.019531 4.578125 -20.222656 5.765625 -21.234375 C 6.953125 -22.242188 8.320312 -23.070312 9.875 -23.71875 C 11.425781 -24.363281 13.085938 -24.835938 14.859375 -25.140625 C 16.628906 -25.453125 18.429688 -25.609375 20.265625 -25.609375 Z M 20.265625 -21.9375 C 18.878906 -21.9375 17.535156 -21.796875 16.234375 -21.515625 C 14.929688 -21.242188 13.757812 -20.773438 12.71875 -20.109375 C 11.675781 -19.441406 10.84375 -18.507812 10.21875 -17.3125 C 9.59375 -16.125 9.28125 -14.613281 9.28125 -12.78125 C 9.28125 -10.945312 9.59375 -9.441406 10.21875 -8.265625 C 10.84375 -7.085938 11.675781 -6.160156 12.71875 -5.484375 C 13.757812 -4.816406 14.929688 -4.347656 16.234375 -4.078125 C 17.535156 -3.804688 18.878906 -3.671875 20.265625 -3.671875 C 21.617188 -3.671875 22.945312 -3.804688 24.25 -4.078125 C 25.5625 -4.347656 26.738281 -4.816406 27.78125 -5.484375 C 28.820312 -6.160156 29.65625 -7.085938 30.28125 -8.265625 C 30.90625 -9.441406 31.21875 -10.945312 31.21875 -12.78125 C 31.21875 -14.613281 30.90625 -16.125 30.28125 -17.3125 C 29.65625 -18.507812 28.820312 -19.441406 27.78125 -20.109375 C 26.738281 -20.773438 25.5625 -21.242188 24.25 -21.515625 C 22.945312 -21.796875 21.617188 -21.9375 20.265625 -21.9375 Z M 20.265625 -21.9375 "/></g></g></g><g fill="#000000" fill-opacity="1"><g transform="translate(323.691195, 245.521419)"><g><path d="M 3.359375 -25.609375 L 10.671875 -25.609375 L 10.671875 -14.3125 L 26.453125 -25.609375 L 32.703125 -25.609375 L 16.890625 -14.25 L 36.78125 0 L 24.234375 0 L 10.671875 -9.71875 L 10.671875 0 L 3.359375 0 Z M 3.359375 -25.609375 "/></g></g></g></svg>