<svg xmlns="http://www.w3.org/2000/svg" xmlns:xlink="http://www.w3.org/1999/xlink" width="380" zoomAndPan="magnify" viewBox="0 0 285 30.000001" height="40" preserveAspectRatio="xMidYMid meet" version="1.0"><defs><g/></defs><g fill="#0272ad" fill-opacity="1"><g transform="translate(4.515733, 28.013052)"><g><path d="M 23.125 0 L 11.75 0 L 11.75 -20.40625 L 1.140625 -20.40625 L 1.140625 -27.125 L 33.75 -27.125 L 33.75 -20.40625 L 23.125 -20.40625 Z M 23.125 0 "/></g></g></g><g fill="#0272ad" fill-opacity="1"><g transform="translate(39.403958, 28.013052)"><g><path d="M 40.046875 0 L 29.296875 0 C 28.804688 -0.675781 28.457031 -1.546875 28.25 -2.609375 C 28.070312 -3.429688 27.804688 -4.234375 27.453125 -5.015625 C 27.097656 -5.804688 26.488281 -6.460938 25.625 -6.984375 C 24.769531 -7.503906 23.492188 -7.785156 21.796875 -7.828125 L 14.40625 -7.828125 L 14.40625 0 L 3.03125 0 L 3.03125 -27.125 L 21.53125 -27.125 C 25.945312 -27.125 29.507812 -26.789062 32.21875 -26.125 C 34.9375 -25.46875 36.921875 -24.425781 38.171875 -23 C 39.421875 -21.582031 40.046875 -19.738281 40.046875 -17.46875 C 40.046875 -15.5625 39.613281 -13.957031 38.75 -12.65625 C 37.882812 -11.363281 36.519531 -10.335938 34.65625 -9.578125 C 36.457031 -8.835938 37.625 -7.945312 38.15625 -6.90625 C 38.695312 -5.863281 39.03125 -4.722656 39.15625 -3.484375 C 39.28125 -2.367188 39.578125 -1.207031 40.046875 0 Z M 14.40625 -14.515625 L 20.90625 -14.53125 C 22.71875 -14.53125 24.144531 -14.613281 25.1875 -14.78125 C 26.238281 -14.945312 27.007812 -15.171875 27.5 -15.453125 C 28 -15.734375 28.316406 -16.046875 28.453125 -16.390625 C 28.597656 -16.734375 28.671875 -17.09375 28.671875 -17.46875 C 28.671875 -17.832031 28.597656 -18.1875 28.453125 -18.53125 C 28.316406 -18.882812 28 -19.203125 27.5 -19.484375 C 27.007812 -19.773438 26.238281 -20 25.1875 -20.15625 C 24.144531 -20.320312 22.71875 -20.40625 20.90625 -20.40625 L 14.40625 -20.40625 Z M 14.40625 -14.515625 "/></g></g></g><g fill="#0272ad" fill-opacity="1"><g transform="translate(80.963665, 28.013052)"><g><path d="M 14.40625 0 L 3.03125 0 L 3.03125 -27.125 L 14.40625 -27.125 Z M 14.40625 0 "/></g></g></g><g fill="#000000" fill-opacity="1"><g transform="translate(98.088327, 28.013052)"><g><path d="M 22.46875 0 L 3.03125 0 L 3.03125 -27.09375 L 22.890625 -27.09375 C 26.410156 -27.09375 29.3125 -26.929688 31.59375 -26.609375 C 33.875 -26.296875 35.628906 -25.796875 36.859375 -25.109375 C 38.097656 -24.421875 38.9375 -23.546875 39.375 -22.484375 C 39.820312 -21.429688 40.046875 -20.164062 40.046875 -18.6875 C 40.003906 -17.53125 39.679688 -16.570312 39.078125 -15.8125 C 38.484375 -15.050781 37.785156 -14.484375 36.984375 -14.109375 C 36.191406 -13.734375 35.492188 -13.546875 34.890625 -13.546875 C 35.484375 -13.546875 36.175781 -13.425781 36.96875 -13.1875 C 37.757812 -12.957031 38.53125 -12.625 39.28125 -12.1875 C 40.03125 -11.75 40.648438 -11.210938 41.140625 -10.578125 C 41.640625 -9.953125 41.890625 -9.234375 41.890625 -8.421875 C 41.890625 -7.367188 41.765625 -6.398438 41.515625 -5.515625 C 41.273438 -4.640625 40.785156 -3.859375 40.046875 -3.171875 C 39.316406 -2.492188 38.234375 -1.914062 36.796875 -1.4375 C 35.359375 -0.96875 33.476562 -0.609375 31.15625 -0.359375 C 28.832031 -0.117188 25.9375 0 22.46875 0 Z M 21.828125 -15.875 C 23.492188 -15.875 24.78125 -15.953125 25.6875 -16.109375 C 26.601562 -16.273438 27.238281 -16.523438 27.59375 -16.859375 C 27.945312 -17.203125 28.125 -17.628906 28.125 -18.140625 C 28.125 -18.671875 27.945312 -19.101562 27.59375 -19.4375 C 27.238281 -19.769531 26.601562 -20.015625 25.6875 -20.171875 C 24.78125 -20.328125 23.492188 -20.40625 21.828125 -20.40625 L 14.40625 -20.40625 L 14.40625 -15.875 Z M 21.828125 -6.6875 C 23.523438 -6.6875 24.898438 -6.726562 25.953125 -6.8125 C 27.015625 -6.90625 27.789062 -7.109375 28.28125 -7.421875 C 28.78125 -7.742188 29.03125 -8.253906 29.03125 -8.953125 C 29.03125 -9.660156 28.78125 -10.175781 28.28125 -10.5 C 27.789062 -10.820312 27.015625 -11.019531 25.953125 -11.09375 C 24.898438 -11.175781 23.523438 -11.21875 21.828125 -11.21875 L 14.40625 -11.21875 L 14.40625 -6.6875 Z M 21.828125 -6.6875 "/></g></g></g><g fill="#000000" fill-opacity="1"><g transform="translate(141.50017, 28.013052)"><g><path d="M 20.5 0.578125 C 13.800781 0.578125 8.867188 -0.796875 5.703125 -3.546875 C 2.910156 -5.992188 1.515625 -9.328125 1.515625 -13.546875 C 1.515625 -17.753906 2.910156 -21.082031 5.703125 -23.53125 C 8.867188 -26.289062 13.800781 -27.671875 20.5 -27.671875 C 27.207031 -27.671875 32.140625 -26.289062 35.296875 -23.53125 C 38.097656 -21.082031 39.5 -17.753906 39.5 -13.546875 C 39.5 -9.328125 38.097656 -5.992188 35.296875 -3.546875 C 32.140625 -0.796875 27.207031 0.578125 20.5 0.578125 Z M 20.5 -6.6875 C 23.25 -6.6875 25.265625 -7.472656 26.546875 -9.046875 C 27.578125 -10.316406 28.09375 -11.816406 28.09375 -13.546875 C 28.09375 -15.273438 27.578125 -16.769531 26.546875 -18.03125 C 25.265625 -19.613281 23.25 -20.40625 20.5 -20.40625 C 17.757812 -20.40625 15.738281 -19.613281 14.4375 -18.03125 C 13.40625 -16.769531 12.890625 -15.273438 12.890625 -13.546875 C 12.890625 -11.816406 13.40625 -10.316406 14.4375 -9.046875 C 15.738281 -7.472656 17.757812 -6.6875 20.5 -6.6875 Z M 20.5 -6.6875 "/></g></g></g><g fill="#000000" fill-opacity="1"><g transform="translate(182.51179, 28.013052)"><g><path d="M 20.5 0.578125 C 13.800781 0.578125 8.867188 -0.796875 5.703125 -3.546875 C 2.910156 -5.992188 1.515625 -9.328125 1.515625 -13.546875 C 1.515625 -17.753906 2.910156 -21.082031 5.703125 -23.53125 C 8.867188 -26.289062 13.800781 -27.671875 20.5 -27.671875 C 27.207031 -27.671875 32.140625 -26.289062 35.296875 -23.53125 C 38.097656 -21.082031 39.5 -17.753906 39.5 -13.546875 C 39.5 -9.328125 38.097656 -5.992188 35.296875 -3.546875 C 32.140625 -0.796875 27.207031 0.578125 20.5 0.578125 Z M 20.5 -6.6875 C 23.25 -6.6875 25.265625 -7.472656 26.546875 -9.046875 C 27.578125 -10.316406 28.09375 -11.816406 28.09375 -13.546875 C 28.09375 -15.273438 27.578125 -16.769531 26.546875 -18.03125 C 25.265625 -19.613281 23.25 -20.40625 20.5 -20.40625 C 17.757812 -20.40625 15.738281 -19.613281 14.4375 -18.03125 C 13.40625 -16.769531 12.890625 -15.273438 12.890625 -13.546875 C 12.890625 -11.816406 13.40625 -10.316406 14.4375 -9.046875 C 15.738281 -7.472656 17.757812 -6.6875 20.5 -6.6875 Z M 20.5 -6.6875 "/></g></g></g><g fill="#000000" fill-opacity="1"><g transform="translate(223.523409, 28.013052)"><g><path d="M 47.546875 0 L 32.765625 0 L 21.125 -9.078125 L 14.40625 -4.484375 L 14.40625 0 L 3.03125 0 L 3.03125 -27.125 L 14.40625 -27.125 L 14.40625 -14.578125 L 32.65625 -27.125 L 47.546875 -27.125 L 28.125 -13.859375 Z M 47.546875 0 "/></g></g></g></svg>