<svg xmlns="http://www.w3.org/2000/svg" xmlns:xlink="http://www.w3.org/1999/xlink" width="100" zoomAndPan="magnify" viewBox="0 0 75 37.5" height="50" preserveAspectRatio="xMidYMid meet" version="1.0"><defs><g/><clipPath id="24bdd2218e"><path d="M 67 21 L 74.503906 21 L 74.503906 27 L 67 27 Z M 67 21 " clip-rule="nonzero"/></clipPath></defs><g fill="#000000" fill-opacity="1"><g transform="translate(17.921705, 25.3452)"><g><path d="M 3.34375 -25.453125 L 14.265625 -25.453125 C 16.085938 -25.453125 17.875 -25.425781 19.625 -25.375 C 21.382812 -25.332031 23.03125 -25.195312 24.5625 -24.96875 C 26.101562 -24.75 27.460938 -24.382812 28.640625 -23.875 C 29.828125 -23.363281 30.75 -22.648438 31.40625 -21.734375 C 32.070312 -20.828125 32.40625 -19.644531 32.40625 -18.1875 C 32.40625 -17.007812 32.1875 -16.015625 31.75 -15.203125 C 31.3125 -14.390625 30.695312 -13.71875 29.90625 -13.1875 C 31.238281 -12.6875 32.289062 -11.96875 33.0625 -11.03125 C 33.84375 -10.09375 34.234375 -8.835938 34.234375 -7.265625 C 34.234375 -5.828125 33.898438 -4.644531 33.234375 -3.71875 C 32.566406 -2.789062 31.640625 -2.070312 30.453125 -1.5625 C 29.273438 -1.0625 27.914062 -0.695312 26.375 -0.46875 C 24.832031 -0.25 23.179688 -0.113281 21.421875 -0.0625 C 19.671875 -0.0195312 17.878906 0 16.046875 0 L 3.34375 0 Z M 10.609375 -21.796875 L 10.609375 -14.53125 L 14.265625 -14.53125 C 16.691406 -14.53125 18.710938 -14.582031 20.328125 -14.6875 C 21.941406 -14.789062 23.144531 -15.09375 23.9375 -15.59375 C 24.738281 -16.101562 25.140625 -16.96875 25.140625 -18.1875 C 25.140625 -19.394531 24.738281 -20.25 23.9375 -20.75 C 23.144531 -21.25 21.941406 -21.546875 20.328125 -21.640625 C 18.710938 -21.742188 16.691406 -21.796875 14.265625 -21.796875 Z M 16.046875 -10.921875 C 15.753906 -10.921875 15.460938 -10.921875 15.171875 -10.921875 C 14.878906 -10.921875 14.578125 -10.921875 14.265625 -10.921875 L 10.609375 -10.921875 L 10.609375 -3.65625 L 16.046875 -3.65625 C 18.484375 -3.65625 20.507812 -3.703125 22.125 -3.796875 C 23.75 -3.898438 24.960938 -4.203125 25.765625 -4.703125 C 26.566406 -5.210938 26.96875 -6.066406 26.96875 -7.265625 C 26.96875 -8.484375 26.566406 -9.34375 25.765625 -9.84375 C 24.960938 -10.351562 23.75 -10.660156 22.125 -10.765625 C 20.507812 -10.867188 18.484375 -10.921875 16.046875 -10.921875 Z M 16.046875 -10.921875 "/></g></g></g><g fill="#0272ad" fill-opacity="1"><g transform="translate(0.345395, 25.3452)"><g><path d="M 0.953125 -25.453125 L 33.65625 -25.453125 L 33.65625 -21.796875 L 20.953125 -21.796875 L 20.953125 0 L 13.65625 0 L 13.65625 -21.796875 L 0.953125 -21.796875 Z M 0.953125 -25.453125 "/></g></g></g><g fill="#0b1e3f" fill-opacity="1"><g transform="translate(51.336245, 26.517112)"><g><path d="M 3.96875 -5.015625 C 4.320312 -5.015625 4.671875 -4.984375 5.015625 -4.921875 C 5.367188 -4.859375 5.695312 -4.765625 6 -4.640625 C 6.300781 -4.515625 6.566406 -4.351562 6.796875 -4.15625 C 7.035156 -3.957031 7.21875 -3.722656 7.34375 -3.453125 C 7.476562 -3.179688 7.546875 -2.863281 7.546875 -2.5 C 7.546875 -2.144531 7.476562 -1.828125 7.34375 -1.546875 C 7.21875 -1.273438 7.035156 -1.039062 6.796875 -0.84375 C 6.566406 -0.644531 6.300781 -0.484375 6 -0.359375 C 5.695312 -0.242188 5.367188 -0.15625 5.015625 -0.09375 C 4.671875 -0.03125 4.320312 0 3.96875 0 C 3.601562 0 3.25 -0.03125 2.90625 -0.09375 C 2.5625 -0.15625 2.238281 -0.242188 1.9375 -0.359375 C 1.632812 -0.484375 1.363281 -0.644531 1.125 -0.84375 C 0.894531 -1.039062 0.710938 -1.273438 0.578125 -1.546875 C 0.453125 -1.828125 0.390625 -2.144531 0.390625 -2.5 C 0.390625 -2.863281 0.453125 -3.179688 0.578125 -3.453125 C 0.710938 -3.722656 0.894531 -3.957031 1.125 -4.15625 C 1.363281 -4.351562 1.632812 -4.515625 1.9375 -4.640625 C 2.238281 -4.765625 2.5625 -4.859375 2.90625 -4.921875 C 3.25 -4.984375 3.601562 -5.015625 3.96875 -5.015625 Z M 3.96875 -4.296875 C 3.695312 -4.296875 3.429688 -4.269531 3.171875 -4.21875 C 2.921875 -4.164062 2.691406 -4.070312 2.484375 -3.9375 C 2.285156 -3.800781 2.125 -3.617188 2 -3.390625 C 1.875 -3.160156 1.8125 -2.863281 1.8125 -2.5 C 1.8125 -2.144531 1.875 -1.847656 2 -1.609375 C 2.125 -1.378906 2.285156 -1.195312 2.484375 -1.0625 C 2.691406 -0.9375 2.921875 -0.847656 3.171875 -0.796875 C 3.429688 -0.742188 3.695312 -0.71875 3.96875 -0.71875 C 4.226562 -0.71875 4.484375 -0.742188 4.734375 -0.796875 C 4.992188 -0.847656 5.226562 -0.9375 5.4375 -1.0625 C 5.644531 -1.195312 5.804688 -1.378906 5.921875 -1.609375 C 6.046875 -1.847656 6.109375 -2.144531 6.109375 -2.5 C 6.109375 -2.863281 6.046875 -3.160156 5.921875 -3.390625 C 5.804688 -3.617188 5.644531 -3.800781 5.4375 -3.9375 C 5.226562 -4.070312 4.992188 -4.164062 4.734375 -4.21875 C 4.484375 -4.269531 4.226562 -4.296875 3.96875 -4.296875 Z M 3.96875 -4.296875 "/></g></g></g><g fill="#0b1e3f" fill-opacity="1"><g transform="translate(59.272343, 26.517112)"><g><path d="M 3.96875 -5.015625 C 4.320312 -5.015625 4.671875 -4.984375 5.015625 -4.921875 C 5.367188 -4.859375 5.695312 -4.765625 6 -4.640625 C 6.300781 -4.515625 6.566406 -4.351562 6.796875 -4.15625 C 7.035156 -3.957031 7.21875 -3.722656 7.34375 -3.453125 C 7.476562 -3.179688 7.546875 -2.863281 7.546875 -2.5 C 7.546875 -2.144531 7.476562 -1.828125 7.34375 -1.546875 C 7.21875 -1.273438 7.035156 -1.039062 6.796875 -0.84375 C 6.566406 -0.644531 6.300781 -0.484375 6 -0.359375 C 5.695312 -0.242188 5.367188 -0.15625 5.015625 -0.09375 C 4.671875 -0.03125 4.320312 0 3.96875 0 C 3.601562 0 3.25 -0.03125 2.90625 -0.09375 C 2.5625 -0.15625 2.238281 -0.242188 1.9375 -0.359375 C 1.632812 -0.484375 1.363281 -0.644531 1.125 -0.84375 C 0.894531 -1.039062 0.710938 -1.273438 0.578125 -1.546875 C 0.453125 -1.828125 0.390625 -2.144531 0.390625 -2.5 C 0.390625 -2.863281 0.453125 -3.179688 0.578125 -3.453125 C 0.710938 -3.722656 0.894531 -3.957031 1.125 -4.15625 C 1.363281 -4.351562 1.632812 -4.515625 1.9375 -4.640625 C 2.238281 -4.765625 2.5625 -4.859375 2.90625 -4.921875 C 3.25 -4.984375 3.601562 -5.015625 3.96875 -5.015625 Z M 3.96875 -4.296875 C 3.695312 -4.296875 3.429688 -4.269531 3.171875 -4.21875 C 2.921875 -4.164062 2.691406 -4.070312 2.484375 -3.9375 C 2.285156 -3.800781 2.125 -3.617188 2 -3.390625 C 1.875 -3.160156 1.8125 -2.863281 1.8125 -2.5 C 1.8125 -2.144531 1.875 -1.847656 2 -1.609375 C 2.125 -1.378906 2.285156 -1.195312 2.484375 -1.0625 C 2.691406 -0.9375 2.921875 -0.847656 3.171875 -0.796875 C 3.429688 -0.742188 3.695312 -0.71875 3.96875 -0.71875 C 4.226562 -0.71875 4.484375 -0.742188 4.734375 -0.796875 C 4.992188 -0.847656 5.226562 -0.9375 5.4375 -1.0625 C 5.644531 -1.195312 5.804688 -1.378906 5.921875 -1.609375 C 6.046875 -1.847656 6.109375 -2.144531 6.109375 -2.5 C 6.109375 -2.863281 6.046875 -3.160156 5.921875 -3.390625 C 5.804688 -3.617188 5.644531 -3.800781 5.4375 -3.9375 C 5.226562 -4.070312 4.992188 -4.164062 4.734375 -4.21875 C 4.484375 -4.269531 4.226562 -4.296875 3.96875 -4.296875 Z M 3.96875 -4.296875 "/></g></g></g><g clip-path="url(#24bdd2218e)"><g fill="#0b1e3f" fill-opacity="1"><g transform="translate(67.208442, 26.517112)"><g><path d="M 0.65625 -5.015625 L 2.09375 -5.015625 L 2.09375 -2.796875 L 5.171875 -5.015625 L 6.40625 -5.015625 L 3.3125 -2.78125 L 7.203125 0 L 4.75 0 L 2.09375 -1.90625 L 2.09375 0 L 0.65625 0 Z M 0.65625 -5.015625 "/></g></g></g></g></svg>